<?xml version="1.0" encoding="UTF-8" standalone="no"?>
<!-- Created with Inkscape (http://www.inkscape.org/) -->

<svg
   xmlns:dc="http://purl.org/dc/elements/1.1/"
   xmlns:cc="http://creativecommons.org/ns#"
   xmlns:rdf="http://www.w3.org/1999/02/22-rdf-syntax-ns#"
   xmlns:svg="http://www.w3.org/2000/svg"
   xmlns="http://www.w3.org/2000/svg"
   xmlns:sodipodi="http://sodipodi.sourceforge.net/DTD/sodipodi-0.dtd"
   xmlns:inkscape="http://www.inkscape.org/namespaces/inkscape"
   id="svg3294"
   height="24"
   width="24"
   version="1.0"
   inkscape:version="0.48.3.1 r9886"
   sodipodi:docname="scrapstream-connecting.svg">
  <defs
     id="defs10725" />
  <sodipodi:namedview
     pagecolor="#ffffff"
     bordercolor="#666666"
     borderopacity="1"
     objecttolerance="10"
     gridtolerance="10"
     guidetolerance="10"
     inkscape:pageopacity="0"
     inkscape:pageshadow="2"
     inkscape:window-width="1871"
     inkscape:window-height="1056"
     id="namedview10723"
     showgrid="false"
     inkscape:zoom="18.9375"
     inkscape:cx="-9.3719791"
     inkscape:cy="5.9788746"
     inkscape:window-x="49"
     inkscape:window-y="24"
     inkscape:window-maximized="1"
     inkscape:current-layer="svg3294" />
  <metadata
     id="metadata15">
    <rdf:RDF>
      <cc:Work
         rdf:about="">
        <dc:format>image/svg+xml</dc:format>
        <dc:type
           rdf:resource="http://purl.org/dc/dcmitype/StillImage" />
        <dc:title></dc:title>
      </cc:Work>
    </rdf:RDF>
  </metadata>
  <path
     id="rect2722-3"
     style="opacity:.3"
     d="m5 5c-0.554 0-1 0.4894-1 1.0938v9.8125c0 0.605 0.446 1.094 1 1.094h14c0.554 0 1-0.48939 1-1.0938v-9.8125c0-0.6041-0.446-1.0935-1-1.0935h-14zm1 2h12v8h-12v-8zm3 11v1h-2v2h10v-2h-2v-1h-6z" />
  <path
     id="rect2722"
     style="fill:#dfdbd2"
     d="m5 4c-0.554 0-1 0.4894-1 1.0938v9.8125c0 0.605 0.446 1.094 1 1.094h14c0.554 0 1-0.48939 1-1.0938v-9.8125c0-0.6041-0.446-1.0935-1-1.0935h-14zm1 2h12v8h-12v-8zm3 11v1h-2v2h10v-2h-2v-1h-6z" />
  <g
     id="g11560"
     transform="matrix(0.36108871,0,0,0.36108871,7.6669355,5.7144614)"
     style="opacity:1">
    <path
       d="m 21,17 -5,5 -5,-5 h 3 v -7 h 4 v 7 h 3 z M 13,10 8,5 3,10 h 3 v 7 h 4 v -7 h 3 z"
       style="opacity:0.29999999999999999;fill-rule:evenodd"
       id="path4348-1-9"
       inkscape:connector-curvature="0" />
    <path
       d="m 21,16 -5,5 -5,-5 h 3 V 9 h 4 v 7 h 3 z M 13,9 8,4 3,9 h 3 v 7 h 4 V 9 h 3 z"
       style="fill:#dfdbd2;fill-rule:evenodd"
       id="path4348-1"
       inkscape:connector-curvature="0" />
  </g>
</svg>
